<svg width="42" height="42" viewBox="0 0 42 42" fill="none" xmlns="http://www.w3.org/2000/svg">
<g filter="url(#filter0_i_1_4)">
<path d="M41 21C41 32.0457 32.0457 41 21 41C9.95431 41 1 32.0457 1 21C1 9.95431 9.95431 1 21 1C32.0457 1 41 9.95431 41 21Z" fill="url(#paint0_radial_1_4)"/>
</g>
<path d="M21 41.5C32.3218 41.5 41.5 32.3218 41.5 21C41.5 9.67816 32.3218 0.5 21 0.5C9.67816 0.5 0.5 9.67816 0.5 21C0.5 32.3218 9.67816 41.5 21 41.5Z" stroke="#898A8B"/>
<defs>
<filter id="filter0_i_1_4" x="0" y="-5" width="42" height="47" filterUnits="userSpaceOnUse" color-interpolation-filters="sRGB">
<feFlood flood-opacity="0" result="BackgroundImageFix"/>
<feBlend mode="normal" in="SourceGraphic" in2="BackgroundImageFix" result="shape"/>
<feColorMatrix in="SourceAlpha" type="matrix" values="0 0 0 0 0 0 0 0 0 0 0 0 0 0 0 0 0 0 127 0" result="hardAlpha"/>
<feOffset dy="-5"/>
<feGaussianBlur stdDeviation="5"/>
<feComposite in2="hardAlpha" operator="arithmetic" k2="-1" k3="1"/>
<feColorMatrix type="matrix" values="0 0 0 0 0.376042 0 0 0 0 0.385937 0 0 0 0 0.395833 0 0 0 1 0"/>
<feBlend mode="normal" in2="shape" result="effect1_innerShadow_1_4"/>
</filter>
<radialGradient id="paint0_radial_1_4" cx="0" cy="0" r="1" gradientUnits="userSpaceOnUse" gradientTransform="translate(35.8 7) rotate(129.066) scale(39.6691)">
<stop offset="0.0468698" stop-color="#A1A3A5"/>
<stop offset="0.382144" stop-color="#565758"/>
<stop offset="0.624677" stop-color="#2C2C2C"/>
<stop offset="0.821145" stop-color="#161616"/>
</radialGradient>
</defs>
</svg>
