<svg width="0" height="0" class="hidden">
  <symbol fill="none" xmlns="http://www.w3.org/2000/svg" viewBox="0 0 24 24" id="email">
    <path opacity="0.12" d="M13.8351 12.7154C13.1739 13.1783 12.8433 13.4097 12.4837 13.4993C12.1661 13.5785 11.8339 13.5785 11.5163 13.4993C11.1567 13.4097 10.8261 13.1783 10.1649 12.7154L2 7C2 5.34315 3.34315 4 5 4H19C20.6569 4 22 5.34315 22 7L13.8351 12.7154Z" fill="currentColor"></path>
    <path d="M2 7L10.1649 12.7154C10.8261 13.1783 11.1567 13.4097 11.5163 13.4993C11.8339 13.5785 12.1661 13.5785 12.4837 13.4993C12.8433 13.4097 13.1739 13.1783 13.8351 12.7154L22 7M6.8 20H17.2C18.8802 20 19.7202 20 20.362 19.673C20.9265 19.3854 21.3854 18.9265 21.673 18.362C22 17.7202 22 16.8802 22 15.2V8.8C22 7.11984 22 6.27976 21.673 5.63803C21.3854 5.07354 20.9265 4.6146 20.362 4.32698C19.7202 4 18.8802 4 17.2 4H6.8C5.11984 4 4.27976 4 3.63803 4.32698C3.07354 4.6146 2.6146 5.07354 2.32698 5.63803C2 6.27976 2 7.11984 2 8.8V15.2C2 16.8802 2 17.7202 2.32698 18.362C2.6146 18.9265 3.07354 19.3854 3.63803 19.673C4.27976 20 5.11984 20 6.8 20Z" stroke="currentColor" stroke-width="2" stroke-linecap="round" stroke-linejoin="round"></path>
  </symbol>
  <symbol fill="none" xmlns="http://www.w3.org/2000/svg" viewBox="0 0 24 24" id="comment">
    <path d="M7 8.5H12M7 12H15M7 18V20.3355C7 20.8684 7 21.1348 7.10923 21.2716C7.20422 21.3906 7.34827 21.4599 7.50054 21.4597C7.67563 21.4595 7.88367 21.2931 8.29976 20.9602L10.6852 19.0518C11.1725 18.662 11.4162 18.4671 11.6875 18.3285C11.9282 18.2055 12.1844 18.1156 12.4492 18.0613C12.7477 18 13.0597 18 13.6837 18H16.2C17.8802 18 18.7202 18 19.362 17.673C19.9265 17.3854 20.3854 16.9265 20.673 16.362C21 15.7202 21 14.8802 21 13.2V7.8C21 6.11984 21 5.27976 20.673 4.63803C20.3854 4.07354 19.9265 3.6146 19.362 3.32698C18.7202 3 17.8802 3 16.2 3H7.8C6.11984 3 5.27976 3 4.63803 3.32698C4.07354 3.6146 3.6146 4.07354 3.32698 4.63803C3 5.27976 3 6.11984 3 7.8V14C3 14.93 3 15.395 3.10222 15.7765C3.37962 16.8117 4.18827 17.6204 5.22354 17.8978C5.60504 18 6.07003 18 7 18Z" stroke="currentColor" stroke-width="2" stroke-linecap="round" stroke-linejoin="round"/>
  </symbol>
  <symbol xmlns="http://www.w3.org/2000/svg" viewBox="0 0 24 24" id="thumbs-up">
    <path d="M7 22V11M2 13V20C2 21.1046 2.89543 22 4 22H17.4262C18.907 22 20.1662 20.9197 20.3914 19.4562L21.4683 12.4562C21.7479 10.6389 20.3418 9 18.5032 9H15C14.4477 9 14 8.55228 14 8V4.46584C14 3.10399 12.896 2 11.5342 2C11.2093 2 10.915 2.1913 10.7831 2.48812L7.26394 10.4061C7.10344 10.7673 6.74532 11 6.35013 11H4C2.89543 11 2 11.8954 2 13Z" stroke="currentColor" stroke-width="2" stroke-linecap="round" stroke-linejoin="round"></path>
  </symbol>
  <symbol fill="none" xmlns="http://www.w3.org/2000/svg" viewBox="0 0 24 24" id="pencil">
    <path d="M18 2L22 6M2 22L3.2764 17.3199C3.35968 17.0145 3.40131 16.8619 3.46523 16.7195C3.52199 16.5931 3.59172 16.4729 3.67332 16.3609C3.76521 16.2348 3.87711 16.1229 4.1009 15.8991L14.4343 5.56569C14.6323 5.36768 14.7313 5.26867 14.8455 5.23158C14.9459 5.19895 15.0541 5.19895 15.1545 5.23158C15.2687 5.26867 15.3677 5.36768 15.5657 5.56569L18.4343 8.43431C18.6323 8.63232 18.7313 8.73133 18.7684 8.84549C18.8011 8.94591 18.8011 9.05409 18.7684 9.15451C18.7313 9.26867 18.6323 9.36768 18.4343 9.56569L8.1009 19.8991C7.87711 20.1229 7.76521 20.2348 7.63908 20.3267C7.52709 20.4083 7.40692 20.478 7.28052 20.5348C7.13815 20.5987 6.98548 20.6403 6.68014 20.7236L2 22Z" stroke="currentColor" stroke-width="2" stroke-linecap="round" stroke-linejoin="round"/>
  </symbol>
  <symbol fill="none" xmlns="http://www.w3.org/2000/svg" viewBox="0 0 24 24" id="copy">
    <path d="M5 15C4.06812 15 3.60218 15 3.23463 14.8478C2.74458 14.6448 2.35523 14.2554 2.15224 13.7654C2 13.3978 2 12.9319 2 12V5.2C2 4.0799 2 3.51984 2.21799 3.09202C2.40973 2.71569 2.71569 2.40973 3.09202 2.21799C3.51984 2 4.0799 2 5.2 2H12C12.9319 2 13.3978 2 13.7654 2.15224C14.2554 2.35523 14.6448 2.74458 14.8478 3.23463C15 3.60218 15 4.06812 15 5M12.2 22H18.8C19.9201 22 20.4802 22 20.908 21.782C21.2843 21.5903 21.5903 21.2843 21.782 20.908C22 20.4802 22 19.9201 22 18.8V12.2C22 11.0799 22 10.5198 21.782 10.092C21.5903 9.71569 21.2843 9.40973 20.908 9.21799C20.4802 9 19.9201 9 18.8 9H12.2C11.0799 9 10.5198 9 10.092 9.21799C9.71569 9.40973 9.40973 9.71569 9.21799 10.092C9 10.5198 9 11.0799 9 12.2V18.8C9 19.9201 9 20.4802 9.21799 20.908C9.40973 21.2843 9.71569 21.5903 10.092 21.782C10.5198 22 11.0799 22 12.2 22Z" stroke="currentColor" stroke-width="2" stroke-linecap="round" stroke-linejoin="round"/>
  </symbol>
  <symbol fill="none" xmlns="http://www.w3.org/2000/svg" viewBox="0 0 24 24" id="check">
    <path d="M20 6L9 17L4 12" stroke="currentColor" stroke-width="2" stroke-linecap="round" stroke-linejoin="round"/>
  </symbol>
  <symbol fill="none" xmlns="http://www.w3.org/2000/svg" viewBox="0 0 24 24" id="monitor">
    <path d="M7.57181 21C8.90661 20.3598 10.41 20 12 20C13.59 20 15.0934 20.3598 16.4282 21M6.8 17H17.2C18.8802 17 19.7202 17 20.362 16.673C20.9265 16.3854 21.3854 15.9265 21.673 15.362C22 14.7202 22 13.8802 22 12.2V7.8C22 6.11984 22 5.27976 21.673 4.63803C21.3854 4.07354 20.9265 3.6146 20.362 3.32698C19.7202 3 18.8802 3 17.2 3H6.8C5.11984 3 4.27976 3 3.63803 3.32698C3.07354 3.6146 2.6146 4.07354 2.32698 4.63803C2 5.27976 2 6.11984 2 7.8V12.2C2 13.8802 2 14.7202 2.32698 15.362C2.6146 15.9265 3.07354 16.3854 3.63803 16.673C4.27976 17 5.11984 17 6.8 17Z" stroke="currentColor" stroke-width="2" stroke-linecap="round" stroke-linejoin="round"/>
  </symbol>
  <symbol fill="none" xmlns="http://www.w3.org/2000/svg" viewBox="0 0 24 24" id="code">
    <path d="M17 17L22 12L17 7M7 7L2 12L7 17M14 3L10 21" stroke="currentColor" stroke-width="2" stroke-linecap="round" stroke-linejoin="round"/>
  </symbol>
  <symbol fill="none" xmlns="http://www.w3.org/2000/svg" viewBox="0 0 24 24" id="thumbs-down">
    <path d="M17.0001 2V13M22.0001 9.8V5.2C22.0001 4.07989 22.0001 3.51984 21.7821 3.09202C21.5903 2.71569 21.2844 2.40973 20.908 2.21799C20.4802 2 19.9202 2 18.8001 2H8.11806C6.65658 2 5.92584 2 5.33563 2.26743C4.81545 2.50314 4.37335 2.88242 4.06129 3.36072C3.70722 3.90339 3.59611 4.62564 3.37388 6.07012L2.8508 9.47012C2.5577 11.3753 2.41114 12.3279 2.69386 13.0691C2.94199 13.7197 3.4087 14.2637 4.01398 14.6079C4.70358 15 5.66739 15 7.59499 15H8.40005C8.96011 15 9.24013 15 9.45404 15.109C9.64221 15.2049 9.79519 15.3578 9.89106 15.546C10.0001 15.7599 10.0001 16.0399 10.0001 16.6V19.5342C10.0001 20.896 11.104 22 12.4659 22C12.7907 22 13.0851 21.8087 13.217 21.5119L16.5778 13.9502C16.7306 13.6062 16.807 13.4343 16.9278 13.3082C17.0346 13.1967 17.1658 13.1115 17.311 13.0592C17.4753 13 17.6635 13 18.0398 13H18.8001C19.9202 13 20.4802 13 20.908 12.782C21.2844 12.5903 21.5903 12.2843 21.7821 11.908C22.0001 11.4802 22.0001 10.9201 22.0001 9.8Z" stroke="currentColor" stroke-width="2" stroke-linecap="round" stroke-linejoin="round"/>
  </symbol>
</svg>