<svg width="150" height="90" viewBox="0 0 150 90" fill="none" xmlns="http://www.w3.org/2000/svg">
<path d="M42.2715 32.4491C42.2715 34.2877 42.471 35.7784 42.8202 36.8717C43.2194 37.9649 43.7182 39.1575 44.4167 40.4495C44.6661 40.847 44.7659 41.2446 44.7659 41.5924C44.7659 42.0894 44.4666 42.5863 43.818 43.0832L40.675 45.1703C40.2261 45.4684 39.7771 45.6175 39.3779 45.6175C38.8791 45.6175 38.3802 45.369 37.8813 44.9218C37.1829 44.1764 36.5842 43.3813 36.0853 42.5863C35.5864 41.7415 35.0875 40.7974 34.5388 39.6544C30.6475 44.2261 25.7584 46.512 19.8716 46.512C15.6809 46.512 12.3384 45.3193 9.89389 42.9341C7.44936 40.5489 6.20215 37.3686 6.20215 33.3932C6.20215 29.1694 7.6988 25.7406 10.742 23.1566C13.7852 20.5726 17.8261 19.2806 22.9647 19.2806C24.6609 19.2806 26.407 19.4297 28.2528 19.6781C30.0987 19.9266 31.9945 20.3241 33.99 20.7714V17.1438C33.99 13.3672 33.1918 10.7335 31.6452 9.19307C30.0488 7.65261 27.3548 6.90722 23.5134 6.90722C21.7673 6.90722 19.9714 7.10599 18.1255 7.55322C16.2796 8.00045 14.4836 8.54707 12.7375 9.24276C11.9393 9.59061 11.3407 9.78938 10.9914 9.88876C10.6422 9.98814 10.3928 10.0378 10.1932 10.0378C9.49478 10.0378 9.14557 9.54091 9.14557 8.49738V6.06246C9.14557 5.26738 9.24534 4.67107 9.49478 4.32323C9.74423 3.97538 10.1932 3.62754 10.8917 3.27969C12.6378 2.38523 14.7331 1.63984 17.1776 1.04354C19.6221 0.397538 22.2163 0.0993845 24.9602 0.0993845C30.8969 0.0993845 35.2372 1.44108 38.031 4.12446C40.7748 6.80784 42.1717 10.8826 42.1717 16.3488V32.4491H42.2715ZM22.0168 40.0023C23.6631 40.0023 25.3593 39.7041 27.1553 39.1078C28.9513 38.5115 30.5477 37.4183 31.8947 35.9275C32.6929 34.9834 33.2916 33.9398 33.5909 32.7472C33.8902 31.5546 34.0898 30.1135 34.0898 28.424V26.3369C32.643 25.9891 31.0965 25.6909 29.5 25.4921C27.9036 25.2934 26.3571 25.194 24.8105 25.194C21.468 25.194 19.0235 25.84 17.3772 27.1817C15.7308 28.5234 14.9326 30.4117 14.9326 32.8963C14.9326 35.2318 15.5313 36.971 16.7785 38.1637C17.9758 39.406 19.7219 40.0023 22.0168 40.0023ZM62.0772 45.369C61.1792 45.369 60.5805 45.22 60.1814 44.8721C59.7823 44.574 59.4331 43.8783 59.1338 42.9341L47.41 4.522C47.1107 3.52815 46.961 2.88215 46.961 2.53431C46.961 1.73923 47.3601 1.292 48.1583 1.292H53.0474C53.9953 1.292 54.6438 1.44108 54.993 1.78892C55.3921 2.08708 55.6915 2.78277 55.9908 3.72692L64.372 36.6232L72.1546 3.72692C72.4041 2.73307 72.7034 2.08708 73.1025 1.78892C73.5016 1.49077 74.2001 1.292 75.0981 1.292H79.0891C80.037 1.292 80.6856 1.44108 81.0847 1.78892C81.4838 2.08708 81.833 2.78277 82.0325 3.72692L89.9149 37.0207L98.5456 3.72692C98.8449 2.73307 99.1942 2.08708 99.5434 1.78892C99.9425 1.49077 100.591 1.292 101.489 1.292H106.129C106.927 1.292 107.376 1.68954 107.376 2.53431C107.376 2.78277 107.326 3.03123 107.276 3.32938C107.226 3.62754 107.126 4.02507 106.927 4.57169L94.9038 42.9838C94.6044 43.9777 94.2552 44.6237 93.8561 44.9218C93.457 45.22 92.8084 45.4187 91.9603 45.4187H87.6699C86.7221 45.4187 86.0735 45.2697 85.6744 44.9218C85.2753 44.574 84.9261 43.928 84.7265 42.9341L76.9938 10.8826L69.311 42.8844C69.0616 43.8783 68.7622 44.5243 68.3631 44.8721C67.964 45.22 67.2656 45.369 66.3676 45.369H62.0772ZM126.184 46.7107C123.59 46.7107 120.995 46.4126 118.501 45.8163C116.007 45.22 114.061 44.574 112.764 43.8286C111.966 43.3813 111.417 42.8844 111.217 42.4372C111.018 41.99 110.918 41.493 110.918 41.0458V38.5115C110.918 37.468 111.317 36.971 112.065 36.971C112.365 36.971 112.664 37.0207 112.963 37.1201C113.263 37.2195 113.712 37.4183 114.211 37.617C115.907 38.3624 117.753 38.9587 119.698 39.3563C121.694 39.7538 123.639 39.9526 125.635 39.9526C128.778 39.9526 131.223 39.406 132.919 38.3127C134.615 37.2195 135.513 35.6294 135.513 33.592C135.513 32.2006 135.064 31.0577 134.166 30.1135C133.268 29.1694 131.572 28.3246 129.127 27.5295L121.893 25.2934C118.252 24.1504 115.558 22.4609 113.911 20.2248C112.265 18.0383 111.417 15.6034 111.417 13.0194C111.417 10.9323 111.866 9.09368 112.764 7.50353C113.662 5.91338 114.859 4.522 116.356 3.42877C117.852 2.28584 119.549 1.44108 121.544 0.844768C123.54 0.248461 125.635 0 127.83 0C128.928 0 130.075 0.0496922 131.173 0.198769C132.32 0.347846 133.368 0.546615 134.415 0.745384C135.413 0.993845 136.361 1.24231 137.259 1.54046C138.157 1.83861 138.855 2.13677 139.354 2.43492C140.053 2.83246 140.552 3.23 140.851 3.67723C141.15 4.07477 141.3 4.62138 141.3 5.31707V7.65261C141.3 8.69615 140.901 9.24276 140.153 9.24276C139.753 9.24276 139.105 9.04399 138.257 8.64645C135.413 7.35445 132.22 6.70846 128.678 6.70846C125.835 6.70846 123.59 7.15569 122.043 8.09984C120.497 9.04399 119.698 10.4851 119.698 12.5225C119.698 13.9138 120.197 15.1064 121.195 16.0506C122.193 16.9948 124.039 17.9389 126.683 18.7837L133.767 21.0198C137.359 22.1628 139.953 23.7529 141.5 25.7903C143.046 27.8277 143.794 30.1632 143.794 32.7472C143.794 34.884 143.345 36.822 142.497 38.5115C141.599 40.201 140.402 41.6918 138.855 42.8844C137.309 44.1267 135.463 45.0212 133.318 45.6672C131.073 46.3629 128.728 46.7107 126.184 46.7107Z" fill="#9A9A9A"/>
<path fill-rule="evenodd" clip-rule="evenodd" d="M135.613 70.8612C119.199 82.9364 95.3527 89.3467 74.8486 89.3467C46.1129 89.3467 20.2208 78.7622 0.664522 61.1712C-0.882019 59.7798 0.514857 57.8915 2.36073 58.9847C23.5134 71.209 49.6051 78.6132 76.5947 78.6132C94.804 78.6132 114.809 74.8366 133.218 67.0846C135.962 65.8423 138.307 68.8735 135.613 70.8612Z" fill="#9A9A9A"/>
<path fill-rule="evenodd" clip-rule="evenodd" d="M142.447 63.1092C140.352 60.4258 128.578 61.8172 123.24 62.4632C121.644 62.662 121.394 61.2706 122.841 60.227C132.22 53.6677 147.636 55.556 149.432 57.7424C151.228 59.9786 148.933 75.3335 140.152 82.6879C138.806 83.8309 137.508 83.2346 138.107 81.7438C140.103 76.8243 144.543 65.7429 142.447 63.1092Z" fill="#9A9A9A"/>
</svg>
