<svg width="366" height="95" viewBox="0 0 366 95" fill="none" xmlns="http://www.w3.org/2000/svg">
<path d="M172.091 27.4661C170.163 27.4026 168.548 28.9145 168.484 30.8433C168.481 30.9201 168.481 30.9968 168.484 31.0736V48.4197C160.115 41.6983 147.881 43.0344 141.16 51.4036C138.387 54.8562 136.877 59.1519 136.878 63.5799C136.695 74.3094 145.244 83.1558 155.973 83.3393C166.703 83.5227 175.549 74.9735 175.733 64.244C175.737 64.0226 175.737 63.8014 175.733 63.5801V31.0907C175.762 30.117 175.377 29.1766 174.674 28.5026C173.985 27.8293 173.054 27.4617 172.091 27.4833M167.527 68.2579C166.286 71.1762 163.971 73.5061 161.06 74.7649C158.01 76.0561 154.567 76.0561 151.517 74.7649C148.612 73.5179 146.305 71.1908 145.084 68.2748C143.807 65.2593 143.807 61.8554 145.084 58.8401C146.308 55.9339 148.615 53.6186 151.517 52.3841C154.567 51.0929 158.01 51.0929 161.06 52.3841C163.97 53.6429 166.286 55.9724 167.527 58.8911C168.803 61.8948 168.803 65.2882 167.527 68.292" fill="#9A9A9A"/>
<path d="M212.657 49.8241C205.065 42.2396 192.763 42.2451 185.178 49.8364C181.539 53.4781 179.495 58.4149 179.493 63.5628C179.31 74.2924 187.859 83.1389 198.589 83.3224C209.318 83.5057 218.165 74.9563 218.348 64.2269C218.352 64.0057 218.352 63.7844 218.348 63.563C218.35 61.0078 217.861 58.476 216.91 56.1045C215.929 53.7461 214.483 51.6101 212.657 49.8241ZM210.148 68.2408C209.527 69.6807 208.644 70.9925 207.543 72.1089C206.432 73.2248 205.119 74.1205 203.675 74.7478C200.627 76.0394 197.186 76.0394 194.138 74.7478C191.23 73.5035 188.92 71.1758 187.699 68.2579C186.423 65.2424 186.423 61.8385 187.699 58.823C188.927 55.9212 191.237 53.6118 194.138 52.3841C197.186 51.0925 200.627 51.0925 203.675 52.3841C205.119 53.0114 206.432 53.9068 207.543 55.0232C208.644 56.1391 209.527 57.451 210.148 58.8911C211.417 61.8963 211.417 65.2867 210.148 68.2919" fill="#9A9A9A"/>
<path d="M292.982 47.7402C292.985 47.2625 292.887 46.7899 292.694 46.3527C292.498 45.9332 292.231 45.5502 291.907 45.22C291.586 44.8857 291.201 44.6198 290.774 44.4385C290.323 44.2526 289.84 44.1583 289.353 44.1609C288.664 44.1563 287.988 44.3531 287.41 44.7273L266.666 58.2226V31.1246C266.684 30.1546 266.301 29.2201 265.607 28.5422C264.94 27.8409 264.009 27.4509 263.042 27.4662C261.043 27.4536 259.413 29.0636 259.4 31.0622V31.1077V79.3292C259.389 80.2929 259.771 81.2197 260.459 81.8946C261.132 82.5983 262.068 82.9885 263.042 82.9707C264.006 82.9863 264.933 82.5957 265.596 81.8946C266.284 81.2197 266.666 80.2929 266.655 79.3292V66.825L270.885 64.0501L286.918 82.0533C287.567 82.6778 288.441 83.0147 289.341 82.9876C289.829 82.9931 290.313 82.8987 290.763 82.71C291.19 82.533 291.576 82.2688 291.895 81.9342C292.225 81.5953 292.492 81.2003 292.682 80.7676C292.875 80.3305 292.974 79.8578 292.971 79.3801C292.974 78.4392 292.615 77.5331 291.969 76.8487L277.064 60.0574L291.595 50.6226C292.534 49.9742 293.061 48.8786 292.982 47.7402Z" fill="#9A9A9A"/>
<path d="M232.795 54.9439C233.915 53.8366 235.235 52.9527 236.685 52.3388C238.187 51.6998 239.804 51.3762 241.437 51.3874C242.882 51.3742 244.316 51.6315 245.667 52.1463C247.02 52.6906 248.274 53.4561 249.376 54.4116C250.046 54.9454 250.881 55.2297 251.738 55.2157C252.714 55.2568 253.663 54.887 254.354 54.1964C255.035 53.5028 255.405 52.5626 255.379 51.5913C255.391 50.5368 254.932 49.532 254.127 48.8503C250.651 45.739 246.129 44.0543 241.465 44.1329C230.734 44.1329 222.034 52.8321 222.034 63.563C222.008 74.2785 230.672 82.9867 241.388 83.0137C246.065 83.0253 250.59 81.3469 254.128 78.2872C254.857 77.5927 255.267 76.6271 255.26 75.6199C255.324 73.6911 253.812 72.0761 251.883 72.0124C251.806 72.0099 251.729 72.0099 251.653 72.0124C250.827 72.0161 250.024 72.2817 249.359 72.7713C248.275 73.7264 247.031 74.4839 245.684 75.0081C244.332 75.5165 242.898 75.7699 241.453 75.7557C239.821 75.7672 238.204 75.4434 236.702 74.8043C235.253 74.1884 233.933 73.3048 232.812 72.1995C228.051 67.4676 228.028 59.7726 232.76 55.0124C232.777 54.995 232.794 54.9779 232.812 54.9608" fill="#9A9A9A"/>
<path d="M365.046 46.5624C364.344 45.9038 363.51 45.402 362.599 45.0898C361.558 44.716 360.477 44.4651 359.377 44.3424C358.289 44.2087 357.194 44.1406 356.098 44.1384C353.874 44.1316 351.666 44.5148 349.574 45.2712C347.525 46.0186 345.611 47.0976 343.911 48.4652V47.7404C343.832 45.7372 342.144 44.1774 340.141 44.2566C338.249 44.3313 336.731 45.8482 336.657 47.7404V79.3803C336.736 81.3837 338.424 82.9432 340.427 82.8643C342.319 82.7895 343.836 81.2727 343.911 79.3803V63.563C343.9 61.9291 344.224 60.3101 344.862 58.8061C345.473 57.3638 346.356 56.0525 347.462 54.9439C348.575 53.8389 349.888 52.9549 351.33 52.3388C352.834 51.6997 354.453 51.3762 356.087 51.3874C357.711 51.3714 359.324 51.6655 360.838 52.2538C361.317 52.484 361.837 52.6133 362.367 52.6333C362.855 52.6377 363.339 52.5433 363.789 52.3558C364.216 52.1754 364.601 51.9094 364.922 51.5744C365.245 51.2444 365.509 50.8613 365.703 50.4419C365.9 49.9938 366 49.5096 365.998 49.0203C366.033 48.1089 365.679 47.2255 365.024 46.5907" fill="#9A9A9A"/>
<path d="M331.333 56.1331C328.247 48.92 321.175 44.226 313.33 44.1839C302.602 44.1808 293.903 52.8748 293.9 63.6028V63.6083C293.898 74.3425 302.598 83.0461 313.332 83.048C317.992 83.0489 322.497 81.3754 326.027 78.3324C326.078 78.2816 326.157 78.2135 326.169 78.1966C326.485 77.9404 326.762 77.6391 326.99 77.3019C328.156 75.6223 327.74 73.3154 326.061 72.1485C324.654 71.2342 322.804 71.4003 321.581 72.5506C321.462 72.6583 321.123 72.9755 321.066 73.0207L321.015 73.066C319.981 73.9453 318.8 74.6353 317.527 75.1047C316.179 75.5796 314.759 75.8135 313.33 75.7957C312.014 75.8021 310.705 75.5917 309.457 75.1726C308.241 74.7664 307.095 74.1763 306.059 73.4227C305.026 72.6672 304.118 71.7536 303.369 70.7157C302.604 69.6561 302.018 68.4775 301.636 67.2273H329.108C330.072 67.2493 331.004 66.8793 331.69 66.2023C332.397 65.5329 332.782 64.5927 332.749 63.6199C332.771 61.059 332.288 58.5188 331.328 56.1447M301.63 60.0122C301.993 58.761 302.568 57.5811 303.329 56.5239C304.082 55.4843 304.996 54.5706 306.036 53.8169C307.087 53.064 308.246 52.4741 309.473 52.067C310.715 51.6534 312.016 51.443 313.324 51.4439C314.626 51.4424 315.919 51.653 317.153 52.067C319.602 52.8809 321.736 54.439 323.257 56.5239C324.034 57.5798 324.628 58.7593 325.013 60.0122H301.63Z" fill="#9A9A9A"/>
<path d="M352.655 77.7379C351.267 77.7598 350.159 78.9032 350.181 80.2918C350.203 81.6804 351.346 82.7881 352.734 82.7662C354.114 82.7445 355.218 81.615 355.209 80.2353C355.194 78.8405 354.05 77.7225 352.655 77.7379C352.655 77.7379 352.655 77.7379 352.655 77.7379ZM352.655 82.2287C351.555 82.2788 350.623 81.4277 350.573 80.3281C350.523 79.2281 351.374 78.296 352.474 78.2459C353.574 78.1961 354.506 79.047 354.556 80.1468C354.557 80.1817 354.558 80.2171 354.558 80.2522C354.595 81.3056 353.772 82.1899 352.719 82.2274C352.697 82.2283 352.676 82.2287 352.655 82.2287Z" fill="#9A9A9A"/>
<path d="M353.233 80.3146V80.2806C353.511 80.2268 353.72 79.9964 353.748 79.7144C353.759 79.4981 353.669 79.289 353.505 79.148C353.239 79.0072 352.938 78.9445 352.638 78.9669C352.317 78.9625 351.997 78.989 351.681 79.0463V81.5381H352.247V80.5357H352.519C352.842 80.5357 352.989 80.6546 353.04 80.9322C353.074 81.1426 353.139 81.3467 353.233 81.5381H353.861C353.764 81.3426 353.701 81.1319 353.674 80.9151C353.649 80.6439 353.474 80.41 353.221 80.3091M352.536 80.1278H352.258V79.4085C352.366 79.3958 352.474 79.3958 352.581 79.4085C352.944 79.4085 353.114 79.5614 353.114 79.788C353.114 80.0146 352.853 80.1562 352.548 80.1562" fill="#9A9A9A"/>
<path d="M130.224 35.6268C129.867 35.3435 126.537 32.8292 119.515 32.8292C117.661 32.8373 115.81 32.9963 113.982 33.3048C112.623 23.989 104.921 19.447 104.575 19.2433L102.69 18.1558L101.449 19.9455C99.8962 22.3495 98.7624 24.9997 98.0968 27.7833C96.8395 33.101 97.6041 38.0958 100.305 42.3659C97.0434 44.1837 91.8107 44.6311 90.7518 44.6707H4.11695C1.85407 44.6738 0.0178572 46.5025 0.00552499 48.7652C-0.0955259 56.3549 1.19034 63.8993 3.79981 71.0269C6.78421 78.8535 11.2242 84.6185 17.0007 88.1467C23.4736 92.1109 33.9901 94.3761 45.9109 94.3761C51.2963 94.3931 56.6715 93.9057 61.9661 92.9207C69.326 91.5693 76.4082 88.9969 82.9197 85.3093C88.2849 82.2023 93.1136 78.2498 97.2192 73.6036C104.083 65.8338 108.172 57.1804 111.213 49.49H112.425C119.94 49.49 124.561 46.4828 127.109 43.9628C128.803 42.3556 130.125 40.3977 130.983 38.2261L131.521 36.6518L130.224 35.6268Z" fill="#9A9A9A"/>
<path d="M12.1473 42.1338H23.7567C24.3167 42.1338 24.7704 41.6799 24.7704 41.1201V30.7791C24.7735 30.2191 24.3222 29.7629 23.7624 29.7597C23.7606 29.7597 23.7586 29.7597 23.7567 29.7597H12.1473C11.5874 29.7597 11.1337 30.2136 11.1337 30.7734V30.7791V41.1199C11.1337 41.6799 11.5874 42.1338 12.1473 42.1338Z" fill="#9A9A9A"/>
<path d="M28.1457 42.1338H39.7552C40.3151 42.1338 40.7688 41.6799 40.7688 41.1201V30.7791C40.7719 30.2191 40.3206 29.7629 39.7607 29.7597C39.7589 29.7597 39.7568 29.7597 39.755 29.7597H28.1456C27.5825 29.7597 27.1262 30.216 27.1262 30.7791V41.1199C27.1295 41.6808 27.5849 42.1338 28.1457 42.1338Z" fill="#9A9A9A"/>
<path d="M44.3875 42.1338H55.9969C56.5568 42.1338 57.0105 41.6799 57.0105 41.1201V30.7791C57.0137 30.2191 56.5624 29.7629 56.0024 29.7597C56.0006 29.7597 55.9986 29.7597 55.9967 29.7597H44.3873C43.8274 29.7597 43.3737 30.2136 43.3737 30.7734V30.7791V41.1199C43.3738 41.6799 43.8277 42.1338 44.3875 42.1338Z" fill="#9A9A9A"/>
<path d="M60.437 42.1338H72.0464C72.6073 42.1338 73.0626 41.681 73.0658 41.1201V30.7791C73.0658 30.216 72.6095 29.7597 72.0464 29.7597H60.437C59.8771 29.7597 59.4233 30.2136 59.4233 30.7734V30.7791V41.1199C59.4233 41.6799 59.8772 42.1338 60.437 42.1338Z" fill="#9A9A9A"/>
<path d="M28.1457 27.2567H39.7551C40.3158 27.2535 40.7688 26.798 40.7688 26.2373V15.8965C40.7688 15.3365 40.3149 14.8828 39.7551 14.8828H28.1457C27.585 14.8828 27.1295 15.3356 27.1263 15.8965V26.2373C27.1295 26.7991 27.5839 27.2535 28.1457 27.2567Z" fill="#9A9A9A"/>
<path d="M44.3875 27.2567H55.997C56.5576 27.2535 57.0106 26.798 57.0106 26.2373V15.8965C57.0106 15.3365 56.5567 14.8828 55.997 14.8828H44.3875C43.8276 14.8828 43.3739 15.3367 43.3739 15.8965V26.2373C43.3739 26.798 43.8269 27.2535 44.3875 27.2567Z" fill="#9A9A9A"/>
<path d="M60.437 27.2567H72.0464C72.6082 27.2535 73.0626 26.7991 73.0658 26.2373V15.8965C73.0626 15.3356 72.6073 14.8828 72.0464 14.8828H60.437C59.8771 14.8828 59.4233 15.3367 59.4233 15.8965V26.2373C59.4233 26.798 59.8763 27.2535 60.437 27.2567Z" fill="#9A9A9A"/>
<path d="M60.437 12.374H72.0464C72.6073 12.374 73.0626 11.9211 73.0658 11.3604V1.01364C73.0626 0.452796 72.6073 0 72.0464 0H60.437C59.8771 0 59.4233 0.453716 59.4233 1.01364V11.3602C59.4233 11.9201 59.8772 12.374 60.437 12.374Z" fill="#9A9A9A"/>
<path d="M76.6279 42.1338H88.2373C88.7982 42.1338 89.2535 41.681 89.2567 41.1201V30.7791C89.2567 30.216 88.8004 29.7597 88.2373 29.7597H76.6279C76.0682 29.7597 75.6143 30.2136 75.6143 30.7734V30.7791V41.1199C75.6143 41.6799 76.0682 42.1338 76.6279 42.1338Z" fill="#9A9A9A"/>
</svg>
