<svg width="489" height="123" viewBox="0 0 489 123" fill="none" xmlns="http://www.w3.org/2000/svg">
<g clip-path="url(#clip0_2_16)">
<path d="M36.5299 12.6736C31.7436 7.0114 27.6221 1.26073 26.7801 0.0663541C26.6914 -0.022118 26.5584 -0.022118 26.4698 0.0663541C25.6278 1.26073 21.5063 7.0114 16.72 12.6736C-24.3621 64.9161 23.1904 100.172 23.1904 100.172L23.5892 100.438C23.9437 105.879 24.8301 113.709 24.8301 113.709H26.6028H28.3755C28.3755 113.709 29.2618 105.923 29.6164 100.438L30.0152 100.128C30.0595 100.172 77.6121 64.9161 36.5299 12.6736ZM26.6028 99.376C26.6028 99.376 24.4756 97.5624 23.8994 96.6338V96.5448L26.4698 39.6576C26.4698 39.4806 26.7357 39.4806 26.7357 39.6576L29.3061 96.5448V96.6338C28.73 97.5624 26.6028 99.376 26.6028 99.376Z" fill="#9A9A9A"/>
<path d="M115.594 87.7676L95.7788 39.511L95.7344 39.3777H80.3171V42.6214H82.8052C83.5604 42.6214 84.2713 42.9325 84.8047 43.4657C85.3376 43.9989 85.6043 44.7101 85.6043 45.4653L85.1601 94.0331C85.1601 95.5436 83.9163 96.7877 82.4054 96.8324L79.873 96.8767V100.076H94.8904V96.8767L93.3351 96.8324C91.8246 96.7877 90.5804 95.5436 90.5804 94.0331V48.2647L112.174 100.076C112.484 100.831 113.195 101.32 113.995 101.32C114.795 101.32 115.506 100.831 115.817 100.076L136.921 49.4199L137.232 94.0331C137.232 95.5883 135.988 96.8324 134.433 96.8767H132.833V100.076H150.427V96.8767H148.028C146.518 96.8767 145.273 95.5883 145.229 94.0773L145.096 45.5096C145.096 43.9545 146.34 42.7103 147.851 42.6659L150.427 42.6214V39.3777H135.41L115.594 87.7676Z" fill="#9A9A9A"/>
<path d="M253.76 96.0312C253.27 95.5418 253.003 94.8742 253.003 94.0729V70.2144C253.003 65.6745 251.667 62.1132 248.994 59.5762C246.366 57.0388 242.713 55.7482 238.17 55.7482C231.799 55.7482 226.766 58.3299 223.247 63.4043C223.202 63.4932 223.069 63.5379 222.935 63.5379C222.801 63.5379 222.712 63.4485 222.712 63.3154L221.064 56.9499H218.302L211.22 61.0005V63.226H213.046C213.892 63.226 214.605 63.4485 215.095 63.8941C215.585 64.3392 215.852 65.0068 215.852 65.9413V94.0282C215.852 94.8295 215.585 95.4971 215.095 95.9869C214.605 96.4763 213.937 96.7435 213.135 96.7435H211.353V99.9928H227.657V96.7435H225.875C225.073 96.7435 224.405 96.4763 223.915 95.9869C223.425 95.4971 223.158 94.8295 223.158 94.0282V75.4225C223.158 73.0633 223.692 70.7042 224.672 68.3893C225.697 66.1196 227.211 64.2056 229.216 62.7366C231.22 61.2677 233.626 60.5554 236.388 60.5554C239.506 60.5554 241.867 61.5345 243.337 63.4932C244.807 65.4519 245.564 67.9889 245.564 71.0157V93.984C245.564 94.7848 245.297 95.4524 244.807 95.9422C244.317 96.432 243.648 96.6988 242.847 96.6988H241.065V99.9481H257.368V96.6988H255.587C254.919 96.7882 254.295 96.5209 253.76 96.0312Z" fill="#9A9A9A"/>
<path d="M402.713 43.011C398.207 40.6183 393.17 39.3777 387.735 39.3777H366.528V42.6122H368.605C369.4 42.6122 370.107 42.9224 370.814 43.6314C371.477 44.2959 371.83 45.0494 371.83 45.8467V93.5238C371.83 94.3211 371.477 95.0746 370.814 95.7391C370.151 96.4037 369.4 96.7581 368.605 96.7581H366.528V99.9928H387.735C393.17 99.9928 398.207 98.7522 402.713 96.3594C407.219 93.9667 410.887 90.4218 413.538 85.9027C416.189 81.3831 417.558 75.933 417.558 69.7295C417.558 63.5264 416.189 58.1206 413.538 53.5568C410.842 48.9487 407.219 45.4481 402.713 43.011ZM409.031 69.641C409.031 75.3127 408.015 80.0978 406.027 83.9528C404.039 87.8078 401.387 90.6877 398.118 92.5491C394.849 94.41 391.226 95.3405 387.338 95.3405H383.052C382.257 95.3405 381.55 95.0303 380.843 94.3211C380.18 93.6565 379.827 92.9035 379.827 92.1058V47.132C379.827 46.3343 380.136 45.6255 380.843 44.9162C381.506 44.2517 382.257 43.8972 383.052 43.8972H387.338C391.226 43.8972 394.849 44.8278 398.118 46.6887C401.387 48.5496 404.039 51.4299 406.027 55.2845C408.015 59.1838 409.031 64.0135 409.031 69.641Z" fill="#9A9A9A"/>
<path d="M467.687 72.8757C465.726 70.6157 461.941 68.7105 457.49 67.6911C463.636 64.6338 466.795 60.3359 466.795 54.7974C466.795 51.7843 465.997 49.0814 464.39 46.7772C462.788 44.4734 460.516 42.6122 457.623 41.3273C454.726 40.0423 451.34 39.3777 447.51 39.3777H423.505V42.6122H425.42C426.222 42.6122 426.934 42.9224 427.647 43.6314C428.315 44.2959 428.671 45.0494 428.671 45.8467V93.5238C428.671 94.3211 428.315 95.0746 427.647 95.7391C426.979 96.4037 426.222 96.7581 425.42 96.7581H423.327V99.9928H449.383C453.346 99.9928 457.042 99.3282 460.383 97.9987C463.725 96.6696 466.396 94.7202 468.313 92.15C470.27 89.5803 471.25 86.434 471.25 82.8007C471.206 78.9014 470.048 75.5782 467.687 72.8757ZM437.802 94.3653C437.134 93.7008 436.777 92.9477 436.777 92.15V70.7484H449.161C453.523 70.7484 456.864 71.8563 459.181 74.0717C461.497 76.2874 462.655 79.1673 462.655 82.7122C462.655 84.839 462.118 86.9216 461.142 88.8268C460.117 90.7767 458.599 92.3274 456.554 93.5238C454.548 94.7202 452.054 95.3405 449.161 95.3405H440.029C439.227 95.3405 438.514 95.0303 437.802 94.3653ZM436.822 66.1846V47.1763C436.822 46.3785 437.134 45.6697 437.846 44.9605C438.515 44.2959 439.272 43.9415 440.073 43.9415H445.953C450.182 43.9415 453.301 45.0052 455.263 47.0431C457.219 49.1257 458.2 51.7843 458.2 55.0633C458.2 58.4308 457.264 61.1337 455.44 63.1716C453.612 65.1657 450.852 66.1846 447.2 66.1846H436.822Z" fill="#9A9A9A"/>
<path d="M191.695 58.5746C188.291 56.7198 184.49 55.7482 180.38 55.7482C176.269 55.7482 172.424 56.6756 169.065 58.5746C165.661 60.4288 162.965 63.1225 160.976 66.5227C158.988 69.9229 157.971 73.8973 157.971 78.313C157.971 82.7286 158.988 86.7031 160.976 90.1033C162.965 93.5035 165.661 96.1971 169.065 98.0518C172.468 99.9061 176.269 100.878 180.38 100.878C184.49 100.878 188.336 99.9503 191.695 98.0518C195.098 96.1971 197.794 93.5035 199.783 90.1033C201.772 86.7031 202.789 82.7286 202.789 78.313C202.789 73.8973 201.772 69.9229 199.783 66.5227C197.794 63.1225 195.098 60.4288 191.695 58.5746ZM194.965 78.313C194.965 83.7444 193.64 88.16 190.987 91.3395C188.38 94.5189 184.8 96.1528 180.38 96.1528C175.96 96.1528 172.38 94.5189 169.772 91.3395C167.12 88.16 165.794 83.7444 165.794 78.313C165.794 72.8815 167.12 68.4659 169.772 65.2865C172.38 62.107 175.96 60.4731 180.38 60.4731C184.8 60.4731 188.38 62.107 190.987 65.2865C193.64 68.4659 194.965 72.8815 194.965 78.313Z" fill="#9A9A9A"/>
<path d="M348.334 58.5746C344.931 56.7198 341.13 55.7482 337.02 55.7482C332.909 55.7482 329.064 56.6756 325.705 58.5746C322.301 60.4288 319.605 63.1225 317.616 66.5227C315.627 69.9229 314.611 73.8973 314.611 78.313C314.611 82.7286 315.627 86.7031 317.616 90.1033C319.605 93.5035 322.301 96.1971 325.705 98.0518C329.108 99.9061 332.909 100.878 337.02 100.878C341.13 100.878 344.975 99.9503 348.334 98.0518C351.738 96.1971 354.434 93.5035 356.423 90.1033C358.412 86.7031 359.428 82.7286 359.428 78.313C359.428 73.8973 358.412 69.9229 356.423 66.5227C354.434 63.1225 351.694 60.4288 348.334 58.5746ZM351.605 78.313C351.605 83.7444 350.279 88.16 347.627 91.3395C345.019 94.5189 341.439 96.1528 337.02 96.1528C332.599 96.1528 329.019 94.5189 326.412 91.3395C323.76 88.16 322.434 83.7444 322.434 78.313C322.434 72.8372 323.76 68.4659 326.412 65.2865C329.019 62.107 332.599 60.4731 337.02 60.4731C341.439 60.4731 345.019 62.107 347.627 65.2865C350.235 68.4659 351.605 72.8815 351.605 78.313Z" fill="#9A9A9A"/>
<path d="M285.164 55.7482C281.603 55.7482 278.354 56.5021 275.416 58.0104C272.478 59.5187 270.163 61.5597 268.516 64.1768C266.869 66.7496 266.023 69.6335 266.023 72.6943C266.023 75.4446 266.646 77.9732 267.937 80.2358C269.184 82.4096 270.875 84.228 273.012 85.7363L266.646 94.3428C265.845 95.4073 265.756 96.8267 266.335 97.9801C266.958 99.1778 268.115 99.888 269.451 99.888H271.276C269.495 101.086 268.071 102.505 267.092 104.191C265.934 106.098 265.356 108.094 265.356 110.135C265.356 113.95 267.047 117.1 270.385 119.451C273.68 121.802 278.309 123 284.14 123C288.191 123 292.063 122.335 295.58 121.048C299.141 119.762 302.034 117.854 304.171 115.37C306.352 112.886 307.465 109.869 307.465 106.409C307.465 102.771 306.129 100.198 303.014 97.7142C300.343 95.629 296.159 94.5202 290.95 94.5202H273.145C273.101 94.5202 273.056 94.4755 273.056 94.4755C273.056 94.4755 273.012 94.387 273.056 94.3428L277.686 88.1322C278.932 88.7087 280.09 89.0635 281.113 89.2852C282.181 89.5073 283.383 89.5958 284.719 89.5958C288.458 89.5958 291.841 88.8418 294.779 87.3335C297.717 85.8252 300.076 83.7847 301.768 81.1672C303.459 78.5944 304.304 75.7109 304.304 72.6501C304.304 69.3671 302.702 63.3782 298.34 60.3173C298.34 60.2731 298.384 60.2731 298.384 60.2731L307.955 61.3376V56.9459H292.642C290.238 56.192 287.746 55.7482 285.164 55.7482ZM290.505 83.5183C288.814 84.4054 286.989 84.8935 285.164 84.8935C282.182 84.8935 279.555 83.8289 277.33 81.7441C275.104 79.6589 273.991 76.598 273.991 72.6943C273.991 68.7906 275.104 65.7293 277.33 63.6445C279.555 61.5597 282.182 60.4948 285.164 60.4948C287.034 60.4948 288.814 60.9385 290.505 61.8699C292.197 62.7574 293.577 64.1326 294.69 65.9515C295.758 67.7704 296.337 70.0326 296.337 72.6943C296.337 75.4003 295.802 77.6626 294.69 79.4372C293.621 81.2561 292.197 82.6312 290.505 83.5183ZM278.442 99.8433H290.505C293.844 99.8433 295.981 100.509 297.405 101.929C298.83 103.348 299.542 105.255 299.542 107.474C299.542 110.712 298.251 113.374 295.669 115.37C293.087 117.366 289.615 118.387 285.342 118.387C281.603 118.387 278.487 117.544 276.217 115.947C273.946 114.35 272.789 111.91 272.789 108.805C272.789 106.852 273.323 105.034 274.392 103.437C275.46 101.84 276.751 100.686 278.442 99.8433Z" fill="#9A9A9A"/>
<path d="M480.281 99.2526C479.402 98.7734 478.741 98.0766 478.213 97.2492C477.729 96.3784 477.463 95.4639 477.463 94.4622C477.463 93.4605 477.729 92.5026 478.213 91.6753C478.696 90.8041 479.402 90.151 480.281 89.6719C481.164 89.1931 482.131 88.9316 483.231 88.9316C484.332 88.9316 485.299 89.1931 486.182 89.6719C487.061 90.151 487.722 90.8479 488.25 91.6753C488.734 92.546 489 93.4605 489 94.4622C489 95.4639 488.734 96.4218 488.25 97.2492C487.766 98.1204 487.061 98.7734 486.182 99.2526C485.299 99.7313 484.332 99.9928 483.231 99.9928C482.175 99.9928 481.164 99.7751 480.281 99.2526ZM485.699 98.6429C486.444 98.2509 486.977 97.6412 487.416 96.9443C487.811 96.2041 488.033 95.3768 488.033 94.4622C488.033 93.5477 487.811 92.7203 487.416 91.9801C487.017 91.2399 486.444 90.6735 485.699 90.2815C484.949 89.8895 484.154 89.6719 483.231 89.6719C482.308 89.6719 481.514 89.8895 480.764 90.2815C480.019 90.6735 479.486 91.2832 479.047 91.9801C478.652 92.7203 478.43 93.5477 478.43 94.4622C478.43 95.3768 478.652 96.2041 479.047 96.9443C479.446 97.6846 480.019 98.2509 480.764 98.6429C481.514 99.0349 482.308 99.2526 483.231 99.2526C484.154 99.2526 484.993 99.0349 485.699 98.6429ZM480.853 97.1187V96.7267L480.942 96.6833H481.208C481.292 96.6833 481.381 96.6395 481.425 96.5961C481.514 96.509 481.514 96.4656 481.514 96.3784V92.3283C481.514 92.2411 481.47 92.1544 481.425 92.1106C481.337 92.0235 481.292 92.0235 481.208 92.0235H480.942L480.853 91.9801V91.5881L480.942 91.5447H483.231C483.893 91.5447 484.376 91.6752 484.771 91.9801C485.171 92.2849 485.344 92.6769 485.344 93.1995C485.344 93.5915 485.215 93.983 484.904 94.2445C484.598 94.5494 484.243 94.7237 483.804 94.7671L484.332 94.9414L485.344 96.5523C485.432 96.6833 485.521 96.7267 485.654 96.7267H485.916L485.96 96.7705V97.162L485.916 97.2058H484.554L484.465 97.162L483.054 94.8104H482.703V96.3784C482.703 96.4656 482.748 96.5523 482.792 96.5961C482.881 96.6833 482.925 96.6833 483.01 96.6833H483.276L483.365 96.7267V97.1187L483.276 97.162H480.942L480.853 97.1187ZM483.098 94.2445C483.453 94.2445 483.759 94.1574 483.937 93.9397C484.11 93.7654 484.243 93.4605 484.243 93.1123C484.243 92.7637 484.154 92.5026 483.981 92.2849C483.804 92.0673 483.538 91.9801 483.231 91.9801H483.054C482.965 91.9801 482.881 92.0235 482.836 92.0673C482.748 92.154 482.748 92.1978 482.748 92.2849V94.2445H483.098Z" fill="#9A9A9A"/>
</g>
<defs>
<clipPath id="clip0_2_16">
<rect width="489" height="123" fill="white"/>
</clipPath>
</defs>
</svg>
