<svg width="81" height="84" viewBox="0 0 81 84" fill="none" xmlns="http://www.w3.org/2000/svg">
<path d="M40.4999 49.3698C44.7525 49.3698 48.1999 45.9456 48.1999 41.7216C48.1999 37.4977 44.7525 34.0735 40.4999 34.0735C36.2473 34.0735 32.7999 37.4977 32.7999 41.7216C32.7999 45.9456 36.2473 49.3698 40.4999 49.3698Z" fill="#9A9A9A"/>
<path d="M40.5 58.9299C61.763 58.9299 79 51.2255 79 41.7216C79 32.2177 61.763 24.5133 40.5 24.5133C19.237 24.5133 2 32.2177 2 41.7216C2 51.2255 19.237 58.9299 40.5 58.9299Z" stroke="#9A9A9A" stroke-width="4"/>
<path d="M25.4961 50.3258C36.1276 68.6161 51.4636 79.591 59.75 74.8391C68.0364 70.0871 66.1354 51.4077 55.5039 33.1175C44.8724 14.8272 29.5364 3.85222 21.25 8.60417C12.9636 13.3561 14.8646 32.0355 25.4961 50.3258Z" stroke="#9A9A9A" stroke-width="4"/>
<path d="M25.496 33.1174C14.8645 51.4077 12.9635 70.0871 21.2499 74.8391C29.5363 79.591 44.8723 68.616 55.5038 50.3258C66.1353 32.0355 68.0363 13.3561 59.7499 8.60415C51.4635 3.8522 36.1275 14.8272 25.496 33.1174Z" stroke="#9A9A9A" stroke-width="4"/>
</svg>
