<svg width="369" height="75" viewBox="0 0 369 75" fill="none" xmlns="http://www.w3.org/2000/svg">
<path d="M246.637 0H309.731V11.9097H284.702V74.5648H272.187V11.9097H246.637V0Z" fill="#9A9A9A"/>
<path d="M139.57 0V11.9097H87.4638V31.0686H129.368V42.9783H87.4638V62.6551H139.57V74.5648H74.5702V11.9097H74.5648V0H139.57Z" fill="#9A9A9A"/>
<path d="M171.546 0H154.865L214.612 74.5648H231.342L201.465 37.308L231.294 0.0568882L214.612 0.0827723L193.113 26.8935L171.546 0Z" fill="#9A9A9A"/>
<path d="M189.28 52.7253L180.786 42.0622L154.865 74.5648H171.875L189.28 52.7253Z" fill="#9A9A9A"/>
<path fill-rule="evenodd" clip-rule="evenodd" d="M76.4767 74.5648L16.0834 0H0V74.5337H12.8667V15.9315L60.3128 74.5648H76.4767Z" fill="#9A9A9A"/>
<path d="M313.56 74.5648C312.501 74.5648 311.601 74.1913 310.848 73.4442C310.094 72.6972 309.721 71.7928 309.731 70.7214C309.721 69.6794 310.094 68.7848 310.848 68.0377C311.601 67.2907 312.501 66.9171 313.56 66.9171C314.578 66.9171 315.468 67.2907 316.222 68.0377C316.987 68.7848 317.368 69.6794 317.378 70.7214C317.368 71.429 317.191 72.0778 316.839 72.6577C316.477 73.2476 316.017 73.7097 315.439 74.0439C314.871 74.3879 314.245 74.5648 313.56 74.5648Z" fill="#9A9A9A"/>
<path d="M334.887 42.0622H340.321V64.6033C340.313 66.6749 339.897 68.4468 339.084 69.9367C338.261 71.4265 337.122 72.5635 335.66 73.3658C334.206 74.1591 332.503 74.5648 330.567 74.5648C328.796 74.5648 327.21 74.2209 325.797 73.551C324.385 72.881 323.263 71.876 322.441 70.5537C321.609 69.2314 321.202 67.5829 321.202 65.6083H326.645C326.653 66.4722 326.836 67.2214 327.185 67.8473C327.533 68.4732 328.015 68.9492 328.631 69.2842C329.253 69.6192 329.969 69.7868 330.774 69.7868C331.647 69.7868 332.395 69.5928 333.001 69.196C333.607 68.8082 334.073 68.2264 334.397 67.4506C334.712 66.6838 334.879 65.7317 334.887 64.6033V42.0622Z" fill="#9A9A9A"/>
<path d="M363.377 51.1761C363.246 49.8294 362.67 48.7782 361.668 48.031C360.656 47.2751 359.349 46.9015 357.746 46.9015C356.62 46.9015 355.651 47.084 354.845 47.4402C354.039 47.8051 353.414 48.2916 352.987 48.9085C352.56 49.5253 352.346 50.2291 352.329 51.0198C352.329 51.6801 352.477 52.2535 352.765 52.7313C353.053 53.2178 353.438 53.6262 353.94 53.9564C354.433 54.2952 354.984 54.5732 355.585 54.7991C356.193 55.025 356.801 55.2162 357.409 55.3726L360.212 56.111C361.339 56.389 362.432 56.7627 363.476 57.2405C364.52 57.7097 365.465 58.3092 366.295 59.0302C367.126 59.7514 367.783 60.6202 368.268 61.6368C368.753 62.6532 369 63.8435 369 65.2163C369 67.0668 368.556 68.6915 367.66 70.099C366.764 71.4978 365.473 72.5925 363.78 73.3832C362.094 74.1652 360.056 74.5648 357.656 74.5648C355.338 74.5648 353.316 74.1826 351.614 73.418C349.905 72.6621 348.572 71.5499 347.61 70.0903C346.649 68.6307 346.131 66.8496 346.057 64.7558H351.384C351.458 65.8504 351.787 66.7628 352.346 67.5013C352.913 68.2311 353.652 68.7697 354.557 69.1346C355.47 69.4908 356.488 69.6733 357.615 69.6733C358.791 69.6733 359.826 69.4821 360.722 69.1085C361.61 68.7349 362.308 68.2138 362.81 67.5361C363.32 66.867 363.575 66.0764 363.583 65.1728C363.575 64.3475 363.344 63.661 362.9 63.1223C362.448 62.5837 361.824 62.1319 361.026 61.7671C360.221 61.4022 359.283 61.072 358.215 60.7853L354.812 59.8643C352.354 59.1953 350.405 58.1789 348.983 56.8148C347.553 55.4508 346.846 53.6436 346.846 51.376C346.846 49.5167 347.323 47.8834 348.285 46.4845C349.238 45.0858 350.545 43.9997 352.198 43.2264C353.858 42.4446 355.733 42.0622 357.82 42.0622C359.941 42.0622 361.799 42.4446 363.402 43.2264C365.004 43.9997 366.263 45.0771 367.175 46.4497C368.087 47.8225 368.564 49.395 368.589 51.1761H363.377Z" fill="#9A9A9A"/>
</svg>
