<svg width="109" height="109" viewBox="0 0 109 109" fill="none" xmlns="http://www.w3.org/2000/svg">
<path fill-rule="evenodd" clip-rule="evenodd" d="M64.1805 0C63.3923 0 62.6604 0.169567 61.9848 0.395644C63.4204 1.35649 64.2086 2.62821 64.6027 4.06948C64.6309 4.2673 64.6871 4.4086 64.7153 4.60642C64.7436 4.77598 64.7716 4.94554 64.7716 5.11511C64.8842 7.602 64.1241 7.91287 63.5893 9.3824C62.773 11.2758 62.9982 13.3106 63.9834 14.9497C64.0679 15.1475 64.1805 15.3736 64.3212 15.5714C63.2515 8.42155 69.1911 7.34766 70.2889 5.11511C70.3733 3.16515 68.7688 1.86518 67.5021 0.960847C66.2917 0.226083 65.1938 0 64.1805 0ZM73.132 1.61084C73.0193 2.26082 73.1038 2.09126 73.0757 2.43038C73.0475 2.65646 73.0475 2.93907 73.0195 3.16515C72.9632 3.39123 72.9068 3.61731 72.8224 3.8434C72.7662 4.06948 72.6817 4.29556 72.5972 4.52164C72.4846 4.74773 72.4002 4.94554 72.2876 5.17162C72.2031 5.28471 72.1468 5.3977 72.0624 5.51075C72.0061 5.59553 71.9497 5.68031 71.8935 5.76509C71.7527 5.96292 71.612 6.16073 71.4712 6.33029C71.3023 6.49986 71.1616 6.69767 70.9645 6.83899V6.86728C70.7956 7.00858 70.6267 7.17815 70.4297 7.31944C69.8386 7.7716 69.163 8.11073 68.5437 8.53463C68.3467 8.67593 68.1496 8.78898 67.9807 8.95854C67.7837 9.09984 67.6148 9.24113 67.4459 9.4107C67.2488 9.58026 67.1081 9.74983 66.9392 9.94765C66.7984 10.1172 66.6295 10.315 66.5169 10.5129C66.3762 10.7107 66.2355 10.9085 66.1228 11.1063C66.0102 11.3324 65.9258 11.5302 65.8132 11.7563C65.7288 11.9824 65.6443 12.1802 65.588 12.4063C65.5036 12.6606 65.4473 12.8867 65.391 13.1128C65.3628 13.2259 65.3628 13.3671 65.3347 13.4802C65.3065 13.5933 65.3065 13.7063 65.2785 13.8193C65.2785 14.0454 65.2503 14.2997 65.2503 14.5258C65.2503 14.6954 65.2503 14.8649 65.2785 15.0345C65.2785 15.2606 65.3066 15.4866 65.3629 15.741C65.3911 15.9671 65.4473 16.1932 65.5037 16.4192C65.5881 16.6453 65.6444 16.8714 65.7288 17.0975C65.7851 17.2388 65.8696 17.3801 65.9259 17.4931L59.4515 14.978C58.3537 14.6671 57.284 14.3845 56.1862 14.1302C55.5951 13.9889 55.0039 13.8476 54.4128 13.7063C52.7238 13.3671 51.0067 13.1128 49.2896 12.9432C49.2333 12.9432 49.2051 12.9149 49.1488 12.9149C47.4599 12.7454 45.7991 12.6606 44.1101 12.6606C42.8715 12.6606 41.6329 12.7171 40.4225 12.8019C38.7054 12.915 36.9883 13.141 35.2712 13.4236C34.8489 13.4801 34.4267 13.5649 34.0044 13.6497C33.1318 13.8193 32.2873 14.0171 31.471 14.2149C31.0488 14.328 30.6265 14.441 30.2043 14.554C29.782 14.7236 29.388 14.9214 28.9938 15.091C28.6842 15.2323 28.3746 15.3736 28.0649 15.5149C28.0087 15.5432 27.9523 15.5432 27.9242 15.5714C27.6427 15.7127 27.3893 15.8257 27.136 15.967C27.0515 15.9953 26.9952 16.0235 26.9389 16.0518C26.6293 16.1931 26.3197 16.3626 26.0663 16.5039C25.8693 16.5887 25.6722 16.7018 25.5033 16.7866C25.4189 16.843 25.3063 16.8996 25.25 16.9279C24.9966 17.0692 24.7433 17.2104 24.5181 17.3518C24.2648 17.4931 24.0396 17.6344 23.8425 17.7756C23.6455 17.917 23.4484 18.03 23.2795 18.1713C23.2513 18.1996 23.2233 18.1996 23.1951 18.2278C23.0262 18.3409 22.8291 18.4821 22.6602 18.6234C22.6602 18.6234 22.632 18.6517 22.604 18.6799C22.4632 18.793 22.3225 18.906 22.1817 19.019C22.1255 19.0473 22.0691 19.1038 22.0128 19.1321C21.8721 19.2452 21.7314 19.3864 21.5906 19.4995C21.5624 19.556 21.5062 19.5843 21.478 19.6126C21.3091 19.7821 21.1402 19.9234 20.9713 20.093C20.9431 20.093 20.9431 20.1213 20.915 20.1495C20.7461 20.2908 20.5772 20.4603 20.4083 20.6299C20.3801 20.6582 20.3801 20.6864 20.3521 20.6864C20.2113 20.8277 20.0706 20.969 19.9298 21.1385C19.8736 21.195 19.7891 21.2516 19.7328 21.3081C19.592 21.4777 19.4231 21.6472 19.2542 21.8168C19.226 21.8733 19.1698 21.9016 19.1416 21.9581C18.9164 22.1842 18.7194 22.4103 18.4942 22.6363C18.466 22.6646 18.4379 22.6928 18.4097 22.7211C17.9593 23.2015 17.4808 23.682 16.9741 24.1059C16.4674 24.558 15.9326 24.9819 15.3977 25.3493C14.8347 25.745 14.2999 26.0841 13.7088 26.4232C13.1458 26.7341 12.5546 27.0167 11.9354 27.271C11.3442 27.5254 10.7249 27.7514 10.1056 27.9493C8.92336 28.2036 7.71293 28.684 6.67141 28.7688C6.44621 28.7688 6.19287 28.8253 5.96767 28.8536C5.71433 28.9101 5.48914 28.9667 5.26394 29.0231C5.03875 29.1079 4.81355 29.1927 4.58835 29.2775C4.36316 29.3623 4.13797 29.4753 3.91277 29.5884C3.71572 29.7296 3.49053 29.8427 3.29348 29.984C3.09644 30.1253 2.89939 30.2948 2.73049 30.4644C2.53345 30.6057 2.3364 30.8035 2.1675 30.9731C1.9986 31.1709 1.82971 31.3405 1.68896 31.5383C1.54822 31.7644 1.37932 31.9622 1.26672 32.1883C1.12597 32.3861 0.985231 32.6122 0.872628 32.8383C0.759985 33.0926 0.647435 33.3187 0.562986 33.573C0.478537 33.7991 0.394089 34.0535 0.30964 34.3078C0.253385 34.5339 0.196997 34.76 0.168896 34.986C0.168896 35.0144 0.140704 35.0425 0.140704 35.0708C0.0844483 35.3252 0.0844482 35.6643 0.0562543 35.8339C0.0280616 36.0317 0 36.2012 0 36.3991C0 36.5122 8.76313e-08 36.6534 0.0281928 36.7665C0.0563855 36.9643 0.0844471 37.1338 0.140835 37.3034C0.19709 37.473 0.253478 37.6425 0.337874 37.8121V37.8404C0.422323 38.01 0.534926 38.1795 0.647515 38.3491C0.760158 38.5186 0.872721 38.6882 1.01346 38.8578C1.15421 38.9991 1.32311 39.1686 1.492 39.3099C1.6609 39.4795 1.8298 39.6208 2.02684 39.7621C2.70243 40.3556 2.87133 40.5534 3.74396 41.0055C3.8847 41.0903 4.02546 41.1468 4.19436 41.2316C4.22255 41.2316 4.25061 41.2599 4.2788 41.2599C4.2788 41.3164 4.2788 41.3447 4.307 41.4012C4.33519 41.6273 4.39145 41.8534 4.44774 42.0795C4.504 42.3338 4.5885 42.5599 4.67295 42.7577C4.7574 42.9273 4.81369 43.0968 4.89814 43.2664C4.92634 43.3229 4.9544 43.3795 4.98259 43.4077C5.09523 43.6338 5.20778 43.8316 5.32037 44.0294C5.46113 44.2273 5.60187 44.4251 5.74262 44.6229C5.88336 44.7925 6.05226 44.9903 6.22116 45.1598C6.39006 45.3294 6.55895 45.4707 6.75601 45.6403C6.75601 45.6403 6.7842 45.6686 6.81226 45.6686C6.98116 45.8099 7.15006 45.9512 7.31895 46.0642C7.51599 46.2055 7.71304 46.3186 7.93824 46.4316C8.13529 46.5447 8.36048 46.6577 8.58567 46.7425C8.75457 46.8273 8.95161 46.8838 9.14866 46.9403C9.17686 46.9686 9.20492 46.9686 9.2613 46.9968C9.37395 47.0251 9.51464 47.0533 9.62724 47.0816C9.54279 48.6076 9.5146 50.0489 9.73988 50.5576C9.99322 51.1228 11.2318 49.3989 12.4704 47.4207C12.3015 49.3707 12.1889 51.6597 12.4704 52.338C12.78 53.0445 14.469 50.8402 15.9328 48.4098C35.8907 43.7751 54.1034 57.6226 56.0175 77.1787C55.6516 74.1266 51.9077 72.431 50.1906 72.8549C49.3461 74.9462 47.9105 77.6309 45.6022 79.2982C45.7993 77.4331 45.7149 75.5114 45.3208 73.6462C44.7015 76.2461 43.491 78.6765 41.8302 80.7678C39.156 80.9656 36.4818 79.6656 35.0743 77.7157C34.9617 77.6309 34.9336 77.4613 34.8491 77.3483C34.7647 77.1504 34.6802 76.9527 34.624 76.7548C34.5395 76.557 34.4832 76.3592 34.4551 76.1614C34.4269 75.9635 34.4269 75.7657 34.4269 75.5396C34.4269 75.3983 34.4269 75.257 34.4269 75.1157C34.4551 74.9179 34.5113 74.7201 34.5676 74.5223C34.6239 74.3244 34.6802 74.1266 34.7647 73.9288C34.8773 73.731 34.9617 73.5332 35.1025 73.3353C35.581 71.9788 35.581 70.8767 34.7084 70.2267C34.5395 70.1136 34.3706 70.0289 34.1735 69.9441C34.0609 69.9158 33.9202 69.8593 33.8076 69.831C33.7231 69.8027 33.6668 69.7745 33.5824 69.7462C33.3853 69.6898 33.1883 69.6331 32.9912 69.6049C32.7942 69.5485 32.5972 69.5202 32.4001 69.5202C32.2031 69.4918 31.9779 69.4637 31.7808 69.4637C31.6401 69.4637 31.4993 69.492 31.3586 69.492C31.1334 69.492 30.9363 69.5203 30.7393 69.5767C30.5422 69.6051 30.3452 69.6332 30.1482 69.6898C29.9511 69.7463 29.7541 69.8029 29.557 69.8877C29.36 69.9724 29.1911 70.0572 28.994 70.142C28.8251 70.2268 28.6562 70.3398 28.4592 70.4246C21.9004 74.7202 25.8131 84.7808 30.2889 87.6916C28.5999 88.0025 26.8828 88.3699 26.4043 88.7372C26.3761 88.7655 26.348 88.7937 26.348 88.7937C27.5585 89.5285 28.8252 90.1502 30.1482 90.6871C31.9498 91.2806 33.8639 91.8176 34.7084 92.0436V92.0719C37.0448 92.5524 39.4094 92.7219 41.8021 92.5806C54.2723 91.7046 64.4905 82.1809 66.3484 69.6333C66.4046 69.8877 66.461 70.1137 66.5173 70.3681C66.6017 70.8767 66.7143 71.4137 66.7706 71.9506V71.979C66.8268 72.2333 66.855 72.4877 66.8832 72.7137V72.8268C66.9115 73.0812 66.9395 73.3355 66.9395 73.5616C66.9677 73.8725 66.9957 74.1833 66.9957 74.4942V74.9464C66.9957 75.0877 67.0239 75.2572 67.0239 75.3985C67.0239 75.5681 66.9957 75.7376 66.9957 75.9072V76.3028C66.9957 76.5007 66.9675 76.6702 66.9675 76.868C66.9675 76.9811 66.9675 77.0941 66.9393 77.2354C66.9393 77.4333 66.9112 77.6311 66.9112 77.8572C66.8829 77.9419 66.8829 78.0267 66.8829 78.1115C66.8547 78.3376 66.8267 78.5354 66.7985 78.7615C66.7985 78.8463 66.7985 78.9311 66.7703 79.0158C66.7421 79.2984 66.6858 79.5528 66.6577 79.8354V79.8637V79.892C66.6014 80.1464 66.545 80.429 66.4887 80.6833V80.7681C66.4325 81.0224 66.3761 81.2768 66.3199 81.5311C66.3199 81.5594 66.2917 81.6159 66.2917 81.6442C66.2354 81.8985 66.179 82.1529 66.0946 82.4072V82.492C66.0102 82.7746 65.9257 83.0289 65.8694 83.2833C65.8412 83.3116 65.8412 83.3398 65.8412 83.3398C65.7568 83.6224 65.6723 83.905 65.5879 84.1876C65.4753 84.4702 65.3909 84.7245 65.2783 85.0071C65.1656 85.2897 65.0812 85.5723 64.9686 85.8267C64.856 86.1093 64.7434 86.3636 64.6308 86.6462H64.6026C64.4899 86.9005 64.3774 87.1832 64.2366 87.4375C64.2084 87.5223 64.1804 87.5788 64.1522 87.6353C64.124 87.6636 64.124 87.6918 64.0959 87.7201C62.2662 91.4222 59.5639 94.6721 56.186 97.2155C55.9608 97.3568 55.7356 97.5264 55.5104 97.6959C55.4541 97.7524 55.3696 97.7807 55.3133 97.8372C55.1163 97.9785 54.9192 98.1199 54.694 98.2612L54.7785 98.4307H54.8067C55.2008 98.3743 55.5949 98.3176 55.9889 98.2612H56.0171C56.749 98.1481 57.4809 98.0068 58.2128 97.8655C58.4098 97.8372 58.635 97.7807 58.8321 97.7242C58.9728 97.6959 59.0854 97.6677 59.2262 97.6394C59.4232 97.6111 59.6203 97.5546 59.8173 97.5263C59.9862 97.4699 60.1551 97.4416 60.324 97.385C63.1389 96.7068 65.8694 95.7742 68.4873 94.6721C64.0116 100.805 58.0157 105.75 51.0065 109C54.2437 108.774 57.4809 108.237 60.6055 107.333C71.9497 103.97 81.4924 96.3111 87.2067 85.9962C86.0526 92.5243 83.4628 98.7415 79.6345 104.168C82.365 102.359 84.8703 100.268 87.1504 97.8937C93.4559 91.2808 97.5938 82.8875 99.0013 73.8725C99.9584 78.3376 100.24 82.9441 99.8176 87.494C120.142 59.0359 101.507 29.5322 93.7092 21.7606C93.681 21.7042 93.653 21.6759 93.653 21.6193C93.6247 21.6476 93.6247 21.6476 93.6247 21.6758C93.6247 21.6475 93.6247 21.6475 93.5965 21.6193C93.5965 21.9585 93.5684 22.2976 93.5403 22.6367C93.4558 23.2867 93.3714 23.9084 93.2588 24.5301C93.118 25.1519 92.9491 25.7736 92.7802 26.3953C92.5832 26.9888 92.358 27.6105 92.1047 28.204C91.8513 28.7692 91.5698 29.3626 91.2602 29.9278C90.9505 30.4648 90.6127 31.03 90.2468 31.5387C89.8809 32.0756 89.4868 32.5843 89.0927 33.0647C88.6704 33.5734 88.22 34.0256 87.7696 34.4777C87.4882 34.7321 87.2348 34.9582 86.9533 35.1842C86.7281 35.3821 86.5311 35.5516 86.3059 35.7494C85.7992 36.1451 85.2925 36.5125 84.7295 36.8516C84.1947 37.1907 83.6317 37.5298 83.0687 37.8125C82.4776 38.0951 81.8864 38.3494 81.2953 38.6037C80.7042 38.8298 80.0849 39.0276 79.4656 39.1972C78.8463 39.3668 78.1989 39.5081 77.5796 39.6211C76.9321 39.7342 76.2847 39.7907 75.6654 39.8472C75.215 39.8755 74.7646 39.9037 74.3142 39.9037C73.6668 39.9037 73.0194 39.8472 72.4001 39.7906C71.7526 39.7341 71.1052 39.6493 70.4859 39.508C69.8385 39.3949 69.2192 39.2254 68.5999 39.0276H68.5717C69.191 38.9711 69.8103 38.9145 70.4296 38.8015C71.077 38.6884 71.6963 38.5471 72.3156 38.3776C72.9349 38.208 73.5542 38.0102 74.1453 37.7841C74.7646 37.558 75.3557 37.2754 75.9187 36.9928C76.5099 36.7102 77.0447 36.3993 77.6077 36.0602C78.1425 35.6928 78.6774 35.3255 79.184 34.9298C79.6907 34.5342 80.1693 34.1103 80.6197 33.6581C81.0982 33.2342 81.5204 32.7538 81.9427 32.2733C82.3649 31.7647 82.759 31.256 83.125 30.7473C83.1812 30.6625 83.2376 30.5495 83.2939 30.4647C83.5754 30.0125 83.8568 29.5604 84.1102 29.1082C84.4198 28.543 84.7013 27.9778 84.9547 27.3843C85.208 26.7909 85.4332 26.1974 85.6303 25.5757C85.8273 24.9822 85.9681 24.3605 86.1088 23.7388C86.2215 23.0888 86.334 22.467 86.3903 21.8453C86.4465 21.1953 86.5029 20.5453 86.5029 19.9236C86.5029 19.4715 86.4747 19.0193 86.4467 18.5671C86.3904 17.9172 86.3059 17.2954 86.2215 16.6737C86.1088 16.0237 85.9681 15.402 85.7992 14.7803C85.6022 14.1868 85.4052 13.5651 85.18 12.9716C84.9548 12.3781 84.6733 11.7847 84.3918 11.2195C84.0821 10.6543 83.7725 10.0891 83.4347 9.55212C83.0688 9.01518 82.7028 8.50649 82.3087 7.9978C81.8865 7.51738 81.4642 7.03696 81.0138 6.55653C80.7886 6.33046 80.5353 6.07611 80.282 5.85003C79.0152 4.86092 77.6922 3.92833 76.3692 3.08052C76.1721 2.96744 76.0033 2.8827 75.8062 2.79791C74.8773 2.20446 74.0046 1.89343 73.132 1.61084Z" fill="#9A9A9A"/>
</svg>
