<svg width="329" height="98" viewBox="0 0 329 98" fill="none" xmlns="http://www.w3.org/2000/svg">
<g clip-path="url(#clip0_2_27)">
<mask id="mask0_2_27" style="mask-type:luminance" maskUnits="userSpaceOnUse" x="0" y="0" width="329" height="98">
<path d="M329 0H0V98H329V0Z" fill="white"/>
</mask>
<g mask="url(#mask0_2_27)">
<path d="M289.548 97.23C288.697 97.23 287.903 97.0013 287.166 96.601L279.624 92.0847C278.49 91.4557 279.057 91.227 279.397 91.1127C280.928 90.598 281.212 90.4837 282.8 89.569C282.97 89.4547 283.197 89.512 283.367 89.6263L289.151 93.1137C289.378 93.228 289.661 93.228 289.831 93.1137L312.458 79.9071C312.683 79.7928 312.799 79.5641 312.799 79.2784V52.9227C312.799 52.637 312.683 52.4083 312.458 52.294L289.831 39.1448C289.605 39.0304 289.321 39.0304 289.151 39.1448L266.525 52.294C266.298 52.4083 266.184 52.694 266.184 52.9227V79.2784C266.184 79.5071 266.298 79.7928 266.525 79.9071L272.706 83.5091C276.051 85.2241 278.15 83.2231 278.15 81.2221V55.2096C278.15 54.8666 278.433 54.5236 278.83 54.5236H281.722C282.062 54.5236 282.403 54.8093 282.403 55.2096V81.2221C282.403 85.7387 279.964 88.3684 275.711 88.3684C274.407 88.3684 273.386 88.3684 270.494 86.9394L264.54 83.5091C263.065 82.6514 262.158 81.0508 262.158 79.3355V52.98C262.158 51.2647 263.065 49.664 264.54 48.8064L287.166 35.6001C288.584 34.7998 290.512 34.7998 291.929 35.6001L314.557 48.8064C316.03 49.664 316.937 51.2647 316.937 52.98V79.3355C316.937 81.0508 316.03 82.6514 314.557 83.5091L291.929 96.7153C291.249 97.0013 290.399 97.23 289.548 97.23Z" fill="#9A9A9A"/>
<path d="M296.58 79.1065C286.655 79.1065 284.614 74.5329 284.614 70.6452C284.614 70.3022 284.897 69.9592 285.294 69.9592H288.243C288.583 69.9592 288.867 70.1879 288.867 70.5309C289.32 73.5609 290.625 75.0475 296.637 75.0475C301.4 75.0475 303.442 73.9612 303.442 71.3885C303.442 69.9022 302.873 68.8159 295.445 68.0726C289.264 67.4436 285.408 66.0716 285.408 61.0977C285.408 56.467 289.264 53.7227 295.728 53.7227C302.988 53.7227 306.56 56.2383 307.013 61.7266C307.013 61.8983 306.957 62.0696 306.844 62.2413C306.729 62.3556 306.56 62.47 306.388 62.47H303.382C303.101 62.47 302.816 62.2413 302.76 61.9553C302.078 58.811 300.321 57.782 295.672 57.782C290.455 57.782 289.831 59.6113 289.831 60.9833C289.831 62.6413 290.568 63.156 297.6 64.0706C304.574 64.9853 307.864 66.3003 307.864 71.2169C307.864 76.2479 303.723 79.1065 296.58 79.1065Z" fill="#9A9A9A"/>
<path d="M329.246 51.4357C329.246 53.837 327.26 55.838 324.877 55.838C322.497 55.838 320.511 53.8941 320.511 51.4357C320.511 48.9204 322.553 47.0338 324.877 47.0338C327.204 47.0338 329.246 48.9774 329.246 51.4357ZM321.193 51.4357C321.193 53.494 322.838 55.152 324.821 55.152C326.863 55.152 328.508 53.4367 328.508 51.4357C328.508 49.3777 326.863 47.7771 324.821 47.7771C322.894 47.7771 321.193 49.3777 321.193 51.4357ZM323.235 48.9774H324.936C325.503 48.9774 326.638 48.9774 326.638 50.2924C326.638 51.2071 326.069 51.3787 325.728 51.4931C326.41 51.5501 326.466 52.0077 326.522 52.6364C326.578 53.0367 326.638 53.7227 326.75 53.9514H325.728C325.728 53.7227 325.559 52.465 325.559 52.4077C325.503 52.122 325.39 52.0077 325.049 52.0077H324.198V54.0084H323.235V48.9774ZM324.142 51.1501H324.877C325.503 51.1501 325.615 50.6927 325.615 50.4641C325.615 49.7781 325.162 49.7781 324.877 49.7781H324.086V51.1501H324.142Z" fill="#9A9A9A"/>
<path fill-rule="evenodd" clip-rule="evenodd" d="M53.8152 51.796C53.8152 50.767 53.2482 49.7953 52.3409 49.2806L28.3537 35.2738C27.9567 35.0451 27.5031 34.9308 27.0494 34.8737C26.9927 34.8737 26.8226 34.8737 26.8226 34.8737C26.3689 34.8737 25.9153 35.0451 25.5183 35.2738L1.47439 49.2233C0.567074 49.738 0 50.71 0 51.796L0.0567074 89.3C0.0567074 89.8146 0.340245 90.329 0.793904 90.5576C1.24756 90.8436 1.81464 90.8436 2.21159 90.5576L16.5018 82.3251C17.4092 81.8107 17.9762 80.8387 17.9762 79.8097V62.2582C17.9762 61.2292 18.5433 60.2572 19.4506 59.7429L25.5183 56.1983C25.972 55.9123 26.4823 55.7979 26.9927 55.7979C27.5031 55.7979 28.0134 55.9123 28.4104 56.1983L34.478 59.7429C35.3853 60.2572 35.9526 61.2292 35.9526 62.2582V79.8097C35.9526 80.8387 36.5196 81.8107 37.4269 82.3251L51.6038 90.5576C52.0573 90.8436 52.6243 90.8436 53.0781 90.5576C53.5319 90.329 53.8152 89.8146 53.8152 89.3V51.796Z" fill="#9A9A9A"/>
<path fill-rule="evenodd" clip-rule="evenodd" d="M169.385 0.171512C168.931 -0.0571705 168.364 -0.0571705 167.967 0.171512C167.514 0.457363 167.23 0.914729 167.23 1.42926V38.59C167.23 38.933 167.06 39.276 166.72 39.505C166.379 39.6763 166.039 39.6763 165.699 39.505L159.688 36.0174C158.781 35.503 157.703 35.503 156.796 36.0174L132.752 50.0242C131.845 50.5389 131.278 51.5106 131.278 52.5396V80.496C131.278 81.5253 131.845 82.497 132.752 83.0116L156.796 97.0185C157.703 97.5329 158.781 97.5329 159.688 97.0185L183.732 83.0116C184.639 82.497 185.207 81.5253 185.207 80.496V10.8052C185.207 9.71899 184.639 8.74709 183.732 8.23256L169.385 0.171512ZM167.174 71.2917C167.174 71.5774 167.06 71.8061 166.833 71.9204L158.611 76.723C158.384 76.8373 158.1 76.8373 157.873 76.723L149.651 71.9204C149.424 71.8061 149.311 71.5204 149.311 71.2917V61.6871C149.311 61.4012 149.424 61.1725 149.651 61.0582L157.873 56.2559C158.1 56.1415 158.384 56.1415 158.611 56.2559L166.833 61.0582C167.06 61.1725 167.174 61.4585 167.174 61.6871V71.2917Z" fill="#9A9A9A"/>
<path fill-rule="evenodd" clip-rule="evenodd" d="M249.397 61.4582C250.305 60.9435 250.815 59.9718 250.815 58.9425V52.1393C250.815 51.1103 250.248 50.1383 249.397 49.6239L225.523 35.6744C224.616 35.1597 223.539 35.1597 222.631 35.6744L198.587 49.6809C197.68 50.1956 197.113 51.1676 197.113 52.1966V80.153C197.113 81.182 197.68 82.154 198.587 82.6683L222.461 96.3892C223.368 96.9039 224.446 96.9039 225.297 96.3892L239.757 88.2713C240.211 88.0426 240.494 87.528 240.494 87.0133C240.494 86.499 240.211 85.9843 239.757 85.7556L215.6 71.7488C215.146 71.4631 214.863 71.0057 214.863 70.4911V61.7442C214.863 61.2295 215.146 60.7149 215.6 60.4862L223.142 56.1412C223.596 55.8555 224.163 55.8555 224.616 56.1412L232.158 60.4862C232.612 60.7722 232.895 61.2295 232.895 61.7442V68.6045C232.895 69.1191 233.179 69.6335 233.633 69.8621C234.086 70.1481 234.653 70.1481 235.107 69.8621L249.397 61.4582Z" fill="#9A9A9A"/>
<path fill-rule="evenodd" clip-rule="evenodd" d="M223.709 60.1438C223.88 60.0295 224.107 60.0295 224.277 60.1438L228.87 62.8308C229.04 62.9451 229.153 63.1168 229.153 63.3454V68.7194C229.153 68.948 229.04 69.1197 228.87 69.234L224.277 71.921C224.107 72.0353 223.88 72.0353 223.709 71.921L219.116 69.234C218.946 69.1197 218.833 68.948 218.833 68.7194V63.3454C218.833 63.1168 218.946 62.9451 219.116 62.8308L223.709 60.1438Z" fill="#9A9A9A"/>
<path d="M94.019 35.7887C93.1114 35.2744 92.034 35.2744 91.1268 35.7887L67.2529 49.6813C66.3457 50.1959 65.8353 51.1676 65.8353 52.1969V80.0387C65.8353 81.068 66.4023 82.0397 67.2529 82.5543L91.1268 96.4469C92.034 96.9612 93.1114 96.9612 94.019 96.4469L117.893 82.5543C118.8 82.0397 119.31 81.068 119.31 80.0387V52.1969C119.31 51.1676 118.743 50.1959 117.893 49.6813L94.019 35.7887Z" fill="url(#paint0_linear_2_27)"/>
<path d="M117.95 49.6812L93.9627 35.7887C93.7359 35.6744 93.4523 35.56 93.2255 35.503L66.3463 81.8683C66.573 82.154 66.8566 82.3827 67.14 82.5543L91.1274 96.4468C91.8079 96.8469 92.6016 96.9612 93.3388 96.7325L118.574 50.1959C118.404 49.9672 118.177 49.7956 117.95 49.6812Z" fill="url(#paint1_linear_2_27)"/>
<path d="M117.95 82.5534C118.631 82.1531 119.141 81.4671 119.368 80.7238L93.1121 35.4448C92.4318 35.3305 91.6944 35.3875 91.0708 35.7878L67.2535 49.623L92.9419 96.846C93.2822 96.7887 93.6794 96.6743 94.0196 96.503L117.95 82.5534Z" fill="url(#paint2_linear_2_27)"/>
</g>
</g>
<defs>
<linearGradient id="paint0_linear_2_27" x1="102.296" y1="46.1354" x2="80.4257" y2="90.389" gradientUnits="userSpaceOnUse">
<stop stop-color="#9A9A9A" stop-opacity="0.466667"/>
<stop offset="0.3296" stop-color="#9A9A9A"/>
<stop offset="0.6367" stop-color="#9A9A9A"/>
<stop offset="0.9341" stop-color="#9A9A9A"/>
<stop offset="1" stop-color="#9A9A9A"/>
</linearGradient>
<linearGradient id="paint1_linear_2_27" x1="88.945" y1="69.3689" x2="149.86" y2="24.7264" gradientUnits="userSpaceOnUse">
<stop offset="0.1376" stop-color="#878887"/>
<stop offset="0.4016" stop-color="#9B9B9A"/>
<stop offset="0.7129" stop-color="#9A9A9A"/>
<stop offset="0.9081" stop-color="#9A9A9A"/>
</linearGradient>
<linearGradient id="paint2_linear_2_27" x1="64.9606" y1="66.1078" x2="120.203" y2="66.1078" gradientUnits="userSpaceOnUse">
<stop offset="0.0919165" stop-color="#9A9A9A"/>
<stop offset="0.2871" stop-color="#959695"/>
<stop offset="0.5984" stop-color="#7A7A7A"/>
<stop offset="0.8624" stop-color="#6C6D6C"/>
</linearGradient>
<clipPath id="clip0_2_27">
<rect width="329" height="98" fill="white"/>
</clipPath>
</defs>
</svg>
