<svg width="73" height="73" viewBox="0 0 73 73" fill="none" xmlns="http://www.w3.org/2000/svg">
<g clip-path="url(#clip0_5_91)">
<path d="M65.8711 0H7.12891C3.19172 0 0 3.19172 0 7.12891V65.8711C0 69.8083 3.19172 73 7.12891 73H65.8711C69.8083 73 73 69.8083 73 65.8711V7.12891C73 3.19172 69.8083 0 65.8711 0Z" fill="#9A9A9A"/>
<path d="M65.8711 0H7.12891C3.19172 0 0 3.19172 0 7.12891V65.8711C0 69.8083 3.19172 73 7.12891 73H65.8711C69.8083 73 73 69.8083 73 65.8711V7.12891C73 3.19172 69.8083 0 65.8711 0Z" fill="#9A9A9A"/>
<path fill-rule="evenodd" clip-rule="evenodd" d="M45.1886 58.0898V65.2274C46.3489 65.8222 47.7212 66.2682 49.3055 66.5656C50.8898 66.863 52.5596 67.0117 54.315 67.0117C56.0258 67.0117 57.6509 66.8482 59.1906 66.521C60.7303 66.1939 62.0804 65.6548 63.2407 64.9038C64.401 64.153 65.3196 63.1715 65.9964 61.9596C66.6732 60.7477 67.0117 59.2496 67.0117 57.4653C67.0117 56.1715 66.8184 55.0377 66.4316 54.0638C66.0448 53.0898 65.487 52.2237 64.758 51.4653C64.0291 50.7069 63.1551 50.0265 62.1361 49.4243C61.1171 48.822 59.9679 48.2533 58.6886 47.718C57.7514 47.3314 56.9109 46.956 56.1671 46.5917C55.4233 46.2272 54.7911 45.8555 54.2704 45.4764C53.7497 45.0972 53.348 44.6957 53.0654 44.2719C52.7828 43.8481 52.6414 43.3686 52.6414 42.8332C52.6414 42.3426 52.7679 41.9001 53.0208 41.5061C53.2737 41.112 53.6308 40.7738 54.0919 40.4912C54.5531 40.2087 55.1183 39.9893 55.7877 39.8332C56.4572 39.6771 57.2009 39.5991 58.0192 39.5991C58.6142 39.5991 59.2426 39.6437 59.9046 39.7328C60.5666 39.8221 61.2323 39.9597 61.9019 40.1454C62.5713 40.3314 63.222 40.5656 63.8543 40.8481C64.4865 41.1307 65.0704 41.4577 65.6059 41.8296V35.1603C64.52 34.744 63.3336 34.4355 62.0469 34.2347C60.7601 34.034 59.2836 33.9336 57.6175 33.9336C55.9216 33.9336 54.315 34.1158 52.7977 34.4801C51.2804 34.8444 49.9453 35.4131 48.7922 36.1863C47.6393 36.9597 46.7283 37.9447 46.0589 39.1418C45.3895 40.3388 45.0547 41.77 45.0547 43.4354C45.0547 45.5618 45.6683 47.376 46.8957 48.8779C48.1228 50.3797 49.986 51.6511 52.4853 52.692C53.4671 53.0935 54.382 53.4875 55.2299 53.8741C56.0778 54.2608 56.8105 54.6623 57.4278 55.0786C58.0451 55.495 58.5323 55.9485 58.8895 56.4393C59.2465 56.9299 59.425 57.4875 59.425 58.1121C59.425 58.5731 59.3134 59.0005 59.0902 59.3946C58.8671 59.7887 58.5286 60.1306 58.0749 60.4206C57.6212 60.7106 57.0559 60.9373 56.3791 61.1009C55.7021 61.2645 54.9101 61.3462 54.0026 61.3462C52.4555 61.3462 50.9233 61.0749 49.4059 60.5321C47.8886 59.9895 46.4827 59.1753 45.1886 58.0898ZM33.1893 40.5039H42.3457V34.6465H16.8242V40.5039H25.9358V66.584H33.1893V40.5039Z" fill="#1A1A1A"/>
</g>
<defs>
<clipPath id="clip0_5_91">
<rect width="73" height="73" fill="white"/>
</clipPath>
</defs>
</svg>
