<svg width="820" height="101" viewBox="0 0 820 101" fill="none" xmlns="http://www.w3.org/2000/svg">
<path fill-rule="evenodd" clip-rule="evenodd" d="M84.6766 0C62.0946 0 47.9846 11.223 42.3366 33.6689C50.8053 22.4459 60.6843 18.2381 71.9736 21.0422C78.4147 22.6417 83.0207 27.2875 88.1145 32.4311C96.4172 40.8068 106.027 50.5 127.013 50.5C149.592 50.5 163.705 39.277 169.35 16.8344C160.885 28.0574 151.006 32.2652 139.716 29.4578C133.272 27.8583 128.666 23.2125 123.572 18.0722C115.269 9.68984 105.662 0 84.6766 0ZM42.3366 50.5C19.758 50.5 5.64466 61.723 0 84.1689C8.46866 72.9459 18.3476 68.7381 29.6337 71.5422C36.0781 73.1417 40.6841 77.7875 45.7779 82.9311C54.0806 91.3068 63.6875 101 84.6766 101C107.255 101 121.369 89.7804 127.013 67.3344C118.545 78.5574 108.666 82.7652 97.3763 79.9611C90.9352 78.3583 86.3292 73.7125 81.2354 68.5722C72.9326 60.1965 63.3224 50.5 42.3366 50.5Z" fill="#9A9A9A"/>
<path fill-rule="evenodd" clip-rule="evenodd" d="M254.013 42.5589H239.236V70.988C239.236 78.5706 244.24 78.4512 254.013 77.9766V89.4684C234.229 91.8377 226.364 86.3889 226.364 70.988V42.5589H215.4V30.2376H226.364V14.329L239.236 10.536V30.2376H254.013V42.5589ZM310.34 30.2376H323.209V89.4684H310.34V80.94C305.811 87.2152 298.779 91.0081 289.484 91.0081C273.277 91.0081 259.811 77.3859 259.811 59.8513C259.811 42.2039 273.277 28.6978 289.484 28.6978C298.779 28.6978 305.811 32.4875 310.34 38.6498V30.2376ZM291.512 78.8062C302.237 78.8062 310.34 70.8685 310.34 59.8513C310.34 48.8341 302.237 40.8997 291.512 40.8997C280.786 40.8997 272.683 48.8374 272.683 59.8513C272.683 70.8685 280.786 78.8062 291.512 78.8062ZM344.66 21.3541C340.133 21.3541 336.44 17.5645 336.44 13.1808C336.45 11.0083 337.321 8.92846 338.862 7.39662C340.402 5.86477 342.487 5.0057 344.66 5.00748C346.833 5.00482 348.918 5.8635 350.46 7.39544C352.001 8.92739 352.872 11.0077 352.883 13.1808C352.883 17.5611 349.189 21.3541 344.66 21.3541ZM338.225 89.4684V30.2376H351.097V89.4684H338.225ZM365.994 89.4684V2.98655H378.863V89.4651H365.994V89.4684ZM462.404 30.2376H475.99L457.281 89.4684H444.648L432.253 49.5476L419.739 89.4684H407.109L388.397 30.2376H401.982L413.544 71.1041L426.058 30.2376H438.333L450.724 71.1041L462.404 30.2376ZM491.959 21.3541C487.429 21.3541 483.735 17.5645 483.735 13.1808C483.746 11.0077 484.617 8.92739 486.159 7.39544C487.7 5.8635 489.785 5.00482 491.959 5.00748C494.132 5.00482 496.217 5.8635 497.759 7.39544C499.3 8.92739 500.171 11.0077 500.182 13.1808C500.182 17.5611 496.488 21.3541 491.959 21.3541ZM485.524 89.4684V30.2376H498.393V89.4684H485.524ZM544.632 28.6978C557.979 28.6978 567.513 37.7007 567.513 53.1016V89.4651H554.644V54.4024C554.644 45.3995 549.401 40.6641 541.297 40.6641C532.835 40.6641 526.162 45.6384 526.162 57.7209V89.4684H513.289V30.2376H526.162V37.8202C530.094 31.6612 536.528 28.6978 544.632 28.6978ZM628.529 6.54724H641.401V89.4651H628.529V80.9367C624.003 87.2152 616.971 91.0048 607.676 91.0048C591.469 91.0048 578.002 77.3826 578.002 59.848C578.002 42.2005 591.469 28.6945 607.676 28.6945C616.971 28.6945 624.003 32.4842 628.529 38.6465V6.54724ZM609.7 78.8062C620.425 78.8062 628.529 70.8685 628.529 59.8513C628.529 48.8341 620.425 40.8997 609.7 40.8997C598.975 40.8997 590.871 48.8374 590.871 59.8513C590.871 70.8685 598.975 78.8062 609.7 78.8062ZM684.541 91.0081C666.545 91.0081 653.079 77.3859 653.079 59.8513C653.079 42.2039 666.545 28.6978 684.541 28.6978C696.218 28.6978 706.35 34.7374 711.115 43.9792L700.031 50.3772C697.41 44.8088 691.573 41.2548 684.421 41.2548C673.935 41.2548 665.951 49.1925 665.951 59.8513C665.951 70.5135 673.935 78.4512 684.421 78.4512C691.573 78.4512 697.41 74.7777 700.27 69.3288L711.354 75.6073C706.35 84.9653 696.218 91.0081 684.541 91.0081ZM732.565 46.5842C732.565 57.3658 764.625 50.8484 764.625 72.7667C764.625 84.6135 754.255 91.0081 741.386 91.0081C729.469 91.0081 720.888 85.6754 717.075 77.147L728.158 70.7524C730.063 76.0818 734.832 79.2808 741.386 79.2808C747.107 79.2808 751.514 77.3859 751.514 72.6439C751.514 62.1045 719.457 68.0279 719.457 46.8231C719.457 35.6864 729.111 28.6978 741.266 28.6978C751.039 28.6978 759.143 33.2009 763.314 41.0192L752.469 47.0587C750.322 42.4395 746.151 40.3057 741.266 40.3057C736.617 40.3057 732.565 42.32 732.565 46.5842ZM787.505 46.5842C787.505 57.3658 819.561 50.8484 819.561 72.7667C819.561 84.6135 809.195 91.0081 796.322 91.0081C784.406 91.0081 775.828 85.6754 772.012 77.147L783.095 70.7524C785.003 76.0818 789.768 79.2808 796.322 79.2808C802.043 79.2808 806.454 77.3859 806.454 72.6439C806.454 62.1045 774.397 68.0279 774.397 46.8231C774.397 35.6864 784.048 28.6978 796.206 28.6978C805.976 28.6978 814.079 33.2009 818.251 41.0192L807.406 47.0587C805.262 42.4395 801.091 40.3057 796.206 40.3057C791.557 40.3057 787.505 42.32 787.505 46.5842Z" fill="#9A9A9A"/>
</svg>
